<svg width="800" height="800" viewBox="0 0 800 800" fill="none" xmlns="http://www.w3.org/2000/svg">
  <defs>
    <linearGradient id="grad1" x1="0%" y1="0%" x2="100%" y2="100%">
      <stop offset="0%" style="stop-color:#8b5cf6;stop-opacity:1" />
      <stop offset="25%" style="stop-color:#a855f7;stop-opacity:1" />
      <stop offset="50%" style="stop-color:#06b6d4;stop-opacity:1" />
      <stop offset="75%" style="stop-color:#3b82f6;stop-opacity:1" />
      <stop offset="100%" style="stop-color:#8b5cf6;stop-opacity:1" />
    </linearGradient>
    <linearGradient id="grad2" x1="100%" y1="0%" x2="0%" y2="100%">
      <stop offset="0%" style="stop-color:#ef4444;stop-opacity:1" />
      <stop offset="33%" style="stop-color:#f97316;stop-opacity:1" />
      <stop offset="66%" style="stop-color:#10b981;stop-opacity:1" />
      <stop offset="100%" style="stop-color:#3b82f6;stop-opacity:1" />
    </linearGradient>
  </defs>
  
  <path d="M 100 100 Q 150 50 300 80 Q 450 110 500 200 Q 550 290 600 350 Q 700 450 680 600 Q 660 700 550 720 Q 400 750 250 700 Q 120 660 80 500 Q 40 350 100 200 Q 120 150 100 100 Z" fill="url(#grad1)"/>
  <path d="M 200 150 Q 250 100 400 130 Q 550 160 600 280 Q 650 400 620 550 Q 590 650 480 680 Q 350 710 220 660 Q 120 620 100 480 Q 80 340 150 220 Q 180 180 200 150 Z" fill="url(#grad2)" opacity="0.7"/>
  
  <text x="400" y="520" font-family="Arial, sans-serif" font-size="340" font-weight="bold" fill="white" text-anchor="middle" dominant-baseline="middle">cv</text>
</svg>
